<svg xmlns="http://www.w3.org/2000/svg" viewBox="0 0 561.7 73.47">
  <defs>
    <style>
      .cls-1{fill:#084c8d}
      .cls-2{fill:#ffffff}
      .cls-3{fill:#33CC95}
      .cls-4{fill:#5cbb16}
    </style>
  </defs>
  <g id="Layer_2" data-name="Layer 2">
    <g id="Layer_1-2" data-name="Layer 1">
      <path class="cls-2" d="M63.6 25.41a57.82 57.82 0 0110.2-.76c4.88 0 8.46 1 10.79 3a10.33 10.33 0 013.58 8.08A11.08 11.08 0 0185 44c-2.66 2.66-6.83 3.91-11.55 3.91a18.8 18.8 0 01-3.25-.22v13.79h-6.6zm6.62 17a13.47 13.47 0 003.25.27c5 0 8-2.44 8-6.73 0-4.07-2.82-6.24-7.43-6.24a18.4 18.4 0 00-3.85.33zM94.85 50.14C95 54.92 98.76 57 103 57a19.86 19.86 0 007.32-1.19l1 4.61a24.77 24.77 0 01-9.22 1.68c-8.57 0-13.62-5.32-13.62-13.4 0-7.32 4.45-14.21 12.91-14.21 8.63 0 11.39 7.05 11.39 12.86a16.43 16.43 0 01-.22 2.82zm11.61-4.67c.05-2.44-1-6.46-5.48-6.46-4.12 0-5.86 3.74-6.13 6.46zM116 43.58c0-3.58-.05-6.13-.22-8.52h5.8l.22 5h.2a7.88 7.88 0 017.21-5.64 7 7 0 011.57.16v6.29a9.27 9.27 0 00-2-.22 5.88 5.88 0 00-6 5 11.37 11.37 0 00-.22 2.06v13.77H116zM132.77 55.35a14.88 14.88 0 006.78 1.9c2.93 0 4.23-1.19 4.23-2.93s-1.08-2.71-4.34-3.85c-5.15-1.79-7.32-4.61-7.27-7.7 0-4.67 3.85-8.3 10-8.3a15.51 15.51 0 017 1.57l-1.3 4.72a11.87 11.87 0 00-5.59-1.52c-2.39 0-3.69 1.14-3.69 2.77s1.25 2.5 4.61 3.69c4.77 1.74 7 4.18 7.05 8.08 0 4.77-3.74 8.3-10.74 8.3a17 17 0 01-8-1.9zM178.66 48c0 9.71-6.83 14-13.56 14-7.49 0-13.24-5.15-13.24-13.62 0-8.68 5.7-14 13.67-14S178.66 40 178.66 48zm-19.91.27c0 5.1 2.5 9 6.56 9 3.8 0 6.46-3.74 6.46-9.06 0-4.12-1.84-8.84-6.4-8.84-4.72-.02-6.62 4.54-6.62 8.93zM182 42.93c0-3-.05-5.59-.22-7.87h5.86l.33 4h.16a9.52 9.52 0 018.41-4.56c4.61 0 9.38 3 9.38 11.34v15.64h-6.67V46.56c0-3.8-1.41-6.67-5-6.67A5.6 5.6 0 00189 43.8a6.78 6.78 0 00-.3 2.2v15.48H182zM231.33 55.13a42.33 42.33 0 00.38 6.35h-6l-.43-2.93h-.16a9.81 9.81 0 01-7.81 3.53c-5.32 0-8.3-3.85-8.3-7.87 0-6.67 5.91-10 15.68-10v-.41c0-1.74-.71-4.61-5.37-4.61a14 14 0 00-7.11 2l-1.3-4.34a19 19 0 019.55-2.33c8.46 0 10.9 5.37 10.9 11.12zm-6.51-6.56c-4.72-.11-9.22.92-9.22 4.94a3.5 3.5 0 003.8 3.8 5.41 5.41 0 005.21-3.63 4.79 4.79 0 00.22-1.46zM236.22 23h6.73v38.48h-6.73z"/>
      <path class="cls-2" d="M288.18 46.56c-.22-4.72-.49-10.42-.43-15.41h-.16c-1.19 4.5-2.71 9.44-4.34 14L277.93 61h-5.15l-4.88-15.58c-1.41-4.67-2.71-9.66-3.69-14.27h-.11c-.16 4.83-.38 10.63-.65 15.62l-.81 14.7h-6.24l2.44-36.56h8.79l4.77 14.7c1.3 4.29 2.44 8.63 3.36 12.69h.16c1-4 2.22-8.46 3.63-12.75l5-14.65h8.68l2.12 36.56h-6.51zM325.13 48c0 9.71-6.83 14-13.56 14-7.49 0-13.24-5.15-13.24-13.62 0-8.68 5.7-14 13.67-14S325.13 40 325.13 48zm-19.91.27c0 5.1 2.5 9 6.56 9 3.8 0 6.46-3.74 6.46-9.06 0-4.12-1.84-8.84-6.4-8.84-4.72-.02-6.62 4.54-6.62 8.93zM328.44 42.93c0-3-.05-5.59-.22-7.87h5.86l.33 4h.16a9.52 9.52 0 018.43-4.59c4.61 0 9.38 3 9.38 11.34v15.67h-6.67V46.56c0-3.8-1.41-6.67-5-6.67a5.6 5.6 0 00-5.21 3.91 6.78 6.78 0 00-.27 2.17v15.51h-6.73zM362 50.14c.16 4.77 3.91 6.83 8.14 6.83a19.86 19.86 0 007.32-1.19l1 4.61a24.77 24.77 0 01-9.22 1.68c-8.57 0-13.62-5.32-13.62-13.4 0-7.32 4.45-14.21 12.91-14.21 8.63 0 11.39 7.05 11.39 12.86a16.43 16.43 0 01-.22 2.82zm11.61-4.67c.05-2.44-1-6.46-5.48-6.46-4.12 0-5.86 3.74-6.13 6.46zM387.13 35.06l4.77 14.16c.54 1.63 1.08 3.63 1.46 5.15h.16c.43-1.52.92-3.47 1.41-5.21l4.12-14.1h7.16l-6.62 18c-3.63 9.87-6.08 14.27-9.22 17a13.42 13.42 0 01-7 3.42l-1.52-5.64a11.43 11.43 0 003.93-1.84 11.64 11.64 0 003.63-4.18 2.68 2.68 0 00.43-1.19 2.83 2.83 0 00-.38-1.3l-9.66-24.25zM416.86 55.73a16.73 16.73 0 008.46 2.39c4.83 0 7.65-2.55 7.65-6.24 0-3.42-2-5.37-6.89-7.27-6-2.12-9.66-5.21-9.66-10.36 0-5.7 4.72-9.93 11.83-9.93a16.61 16.61 0 018.08 1.79L435 30a14.55 14.55 0 00-6.94-1.74c-5 0-6.89 3-6.89 5.48 0 3.42 2.22 5.1 7.27 7.05 6.18 2.39 9.33 5.37 9.33 10.74C437.8 57.14 433.62 62 425 62c-3.53 0-7.38-1-9.33-2.33zM444.9 49.22c.11 6.46 4.23 9.11 9 9.11a17.26 17.26 0 007.28-1.33l.82 3.4a21.27 21.27 0 01-8.74 1.6c-8.08 0-12.91-5.32-12.91-13.24s4.65-14.13 12.31-14.13c8.57 0 10.85 7.54 10.85 12.37a18.14 18.14 0 01-.16 2.22zm14-3.42c.05-3-1.25-7.76-6.62-7.76-4.83 0-6.94 4.45-7.32 7.76zM467.25 43.42c0-3.09-.05-5.75-.22-8.19h4.18l.16 5.15h.22c1.19-3.53 4.07-5.75 7.27-5.75a5.18 5.18 0 011.36.16v4.5a7.15 7.15 0 00-1.63-.16c-3.36 0-5.75 2.55-6.4 6.13a13.44 13.44 0 00-.22 2.22v14h-4.72zM486 35.23L491.18 50a67.59 67.59 0 012.12 6.73h.16c.6-2.17 1.36-4.34 2.22-6.73l5.1-14.75h5l-10.32 26.23h-4.56l-10-26.25zM513.42 27.85a3 3 0 01-5.91 0 2.91 2.91 0 013-3 2.83 2.83 0 012.91 3zm-5.32 33.63V35.23h4.77v26.25zM537.34 60.5a17.59 17.59 0 01-7.54 1.5c-7.92 0-13.07-5.37-13.07-13.4s5.53-13.94 14.1-13.94a16 16 0 016.62 1.34l-1.08 3.69a11.07 11.07 0 00-5.53-1.25c-6 0-9.28 4.45-9.28 9.93 0 6.08 3.91 9.82 9.11 9.82a13.56 13.56 0 005.86-1.3zM543.09 49.22c.11 6.46 4.23 9.11 9 9.11a17.26 17.26 0 007.27-1.33l.81 3.42a21.27 21.27 0 01-8.73 1.58c-8.08 0-12.91-5.32-12.91-13.24s4.67-14.16 12.31-14.16c8.57 0 10.85 7.54 10.85 12.37a18.14 18.14 0 01-.16 2.22zm14-3.42c.05-3-1.25-7.76-6.62-7.76-4.83 0-6.94 4.45-7.32 7.76z"/>
      <path class="cls-3" d="M39.52 23.26h10.55a3 3 0 013 3v32.4a3 3 0 01-3 3H7.6c-5.43 0-2.65-3.09.29-5.26 1.58-1.17 5.67-3.5 5.67-3.5L44 52l-27.73-1 8.63-5.25 22.58-1L28 43.82 35.89 39a6.41 6.41 0 00.76-.55l13.75-.88-12.25-.78a6.84 6.84 0 001.35-3.77z" />
      <path class="cls-1" d="M0 57.44v-33a6.37 6.37 0 012.91-4.72L34.39.51c1.61-1 2.92-.5 2.92 1.11v30.69A6.36 6.36 0 0134.39 37L7.54 53.38C-2 59.73 2.91 61.6 2.91 61.6A2.91 2.91 0 010 58.7z"/>
    </g>
  </g>
</svg>
